<svg xmlns="http://www.w3.org/2000/svg" viewBox="0 0 640 420" font-family="'Segoe UI', Arial, sans-serif">
<rect x="0" y="0" width="640" height="420" rx="12" fill="#fdfdfb" stroke="#e1e0d9"/>
<text x="320" y="28" font-size="16" fill="#20201a" text-anchor="middle" font-weight="700">Efficient Frontier and Capital Market Line (CML)</text>

<line x1="90" y1="360" x2="90" y2="55" stroke="#767568" stroke-width="1.5"/>
<line x1="90" y1="360" x2="590" y2="360" stroke="#767568" stroke-width="1.5"/>
<text x="90" y="45" font-size="13" fill="#767568" text-anchor="middle">Expected Return</text>
<text x="565" y="382" font-size="13" fill="#767568" text-anchor="middle">Risk (Std. Deviation)</text>

<path d="M 170,300 C 240,330 340,355 520,380" fill="none" stroke="#a9a89e" stroke-width="2.5" stroke-dasharray="5,4"/>
<path d="M 170,300 C 260,180 380,110 560,60" fill="none" stroke="#1a5fb4" stroke-width="3"/>

<circle cx="260" cy="275" r="5" fill="#767568"/>
<circle cx="330" cy="255" r="5" fill="#767568"/>
<circle cx="420" cy="290" r="5" fill="#767568"/>
<circle cx="300" cy="330" r="5" fill="#767568"/>
<text x="420" y="312" font-size="13" fill="#767568" text-anchor="middle">Individual stocks / inefficient mixes</text>

<circle cx="170" cy="300" r="6" fill="#20201a"/>
<text x="170" y="322" font-size="13" fill="#20201a" text-anchor="middle" font-weight="700">Minimum-Variance Portfolio</text>

<line x1="90" y1="260" x2="331" y2="154" stroke="#1f9d55" stroke-width="3"/>
<line x1="331" y1="154" x2="476" y2="90" stroke="#1f9d55" stroke-width="3" stroke-dasharray="6,5"/>

<circle cx="90" cy="260" r="6" fill="#1f9d55"/>
<text x="100" y="255" font-size="13" fill="#1f9d55" text-anchor="start" font-weight="700">Risk-Free Asset (Rf)</text>

<circle cx="331" cy="154" r="7" fill="#c0392b"/>
<text x="341" y="135" font-size="13" fill="#c0392b" text-anchor="start" font-weight="700">Market Portfolio (M)</text>

<text x="450" y="205" font-size="13" fill="#1a5fb4" text-anchor="start" font-weight="700">Efficient Frontier</text>
<text x="290" y="368" font-size="13" fill="#a9a89e" text-anchor="middle">Inefficient region</text>

<line x1="410" y1="330" x2="440" y2="330" stroke="#1f9d55" stroke-width="3"/>
<text x="448" y="335" font-size="13" fill="#20201a" text-anchor="start" font-weight="400">Capital Market Line (CML)</text>
</svg>
