<svg xmlns="http://www.w3.org/2000/svg" viewBox="0 0 620 380" font-family="'Malgun Gothic', 'Apple SD Gothic Neo', sans-serif">
<rect x="0" y="0" width="620" height="380" rx="12" fill="#fdfdfb" stroke="#e1e0d9"/>
<text x="310" y="26" font-size="14.5" fill="#20201a" text-anchor="middle" font-weight="700">피보나치 되돌림 골든존 진입 &amp; 확장 목표가</text>

<line x1="55" y1="90" x2="470" y2="90" stroke="#c7c6bd" stroke-width="1" stroke-dasharray="4,3"/>
<text x="478" y="94" font-size="10.5" fill="#5a5950">0% (스윙 고점)</text>

<line x1="55" y1="140" x2="470" y2="140" stroke="#c7c6bd" stroke-width="1" stroke-dasharray="4,3"/>
<text x="478" y="144" font-size="10.5" fill="#5a5950">23.6%</text>

<rect x="55" y="170" width="415" height="50" fill="#c98a1f" opacity="0.13"/>
<line x1="55" y1="170" x2="470" y2="170" stroke="#c98a1f" stroke-width="1.3" stroke-dasharray="4,3"/>
<text x="478" y="174" font-size="10.5" fill="#c98a1f" font-weight="700">38.2%</text>

<line x1="55" y1="195" x2="470" y2="195" stroke="#c7c6bd" stroke-width="1" stroke-dasharray="4,3"/>
<text x="478" y="199" font-size="10.5" fill="#5a5950">50%</text>

<line x1="55" y1="220" x2="470" y2="220" stroke="#c98a1f" stroke-width="1.3" stroke-dasharray="4,3"/>
<text x="478" y="224" font-size="10.5" fill="#c98a1f" font-weight="700">61.8%</text>

<line x1="55" y1="255" x2="470" y2="255" stroke="#c7c6bd" stroke-width="1" stroke-dasharray="4,3"/>
<text x="478" y="259" font-size="10.5" fill="#5a5950">78.6%</text>

<line x1="55" y1="300" x2="470" y2="300" stroke="#c7c6bd" stroke-width="1" stroke-dasharray="4,3"/>
<text x="478" y="304" font-size="10.5" fill="#5a5950">100% (스윙 저점)</text>

<line x1="55" y1="265" x2="470" y2="265" stroke="#d0453b" stroke-width="1.3" stroke-dasharray="6,3"/>
<text x="60" y="335" font-size="10.5" fill="#d0453b" font-weight="700">손절 기준선: 78.6% 되돌림을 하회하면 셋업 무효화</text>

<path d="M 60,300 L 140,250 L 220,180 L 300,90" fill="none" stroke="#1a5fb4" stroke-width="3"/>
<circle cx="60" cy="300" r="5.5" fill="#1f9d55"/>
<text x="60" y="320" font-size="10.5" fill="#1f9d55" text-anchor="middle" font-weight="700">스윙 저점</text>
<circle cx="300" cy="90" r="5.5" fill="#1a5fb4"/>
<text x="300" y="76" font-size="10.5" fill="#1a5fb4" text-anchor="middle" font-weight="700">스윙 고점</text>

<path d="M 300,90 L 332,150 L 358,178 L 375,195" fill="none" stroke="#1a5fb4" stroke-width="3"/>
<circle cx="375" cy="195" r="6.5" fill="#d0453b"/>
<text x="375" y="215" font-size="10.5" fill="#d0453b" text-anchor="middle" font-weight="700">확인 캔들 진입</text>

<path d="M 375,195 L 405,145 L 435,105 L 465,80" fill="none" stroke="#1a5fb4" stroke-width="3"/>

<line x1="465" y1="80" x2="590" y2="80" stroke="#8a4fd1" stroke-width="1.3" stroke-dasharray="4,3"/>
<path d="M 465,80 L 500,58 L 535,38 L 570,22" fill="none" stroke="#1a5fb4" stroke-width="3"/>
<line x1="500" y1="58" x2="590" y2="58" stroke="#8a4fd1" stroke-width="1.3" stroke-dasharray="4,3"/>
<text x="595" y="62" font-size="10" fill="#6a3aa8" font-weight="700" text-anchor="start">127.2% 확장</text>
<line x1="570" y1="22" x2="590" y2="22" stroke="#8a4fd1" stroke-width="1.3" stroke-dasharray="4,3"/>
<circle cx="570" cy="22" r="5" fill="#6a3aa8"/>
<text x="533" y="14" font-size="10" fill="#6a3aa8" font-weight="700" text-anchor="start">161.8% 확장 목표</text>

<line x1="60" y1="355" x2="85" y2="355" stroke="#1a5fb4" stroke-width="3"/>
<text x="92" y="359" font-size="10.5" fill="#20201a">가격 흐름</text>
<rect x="185" y="349" width="16" height="12" fill="#c98a1f" opacity="0.3"/>
<text x="207" y="359" font-size="10.5" fill="#20201a">골든존 (38.2%~61.8% 되돌림)</text>
<line x1="415" y1="355" x2="440" y2="355" stroke="#8a4fd1" stroke-width="1.3" stroke-dasharray="4,3"/>
<text x="447" y="359" font-size="10.5" fill="#20201a">확장 목표선</text>
</svg>
