<svg xmlns="http://www.w3.org/2000/svg" viewBox="0 0 620 330" font-family="'Malgun Gothic', 'Apple SD Gothic Neo', sans-serif">
<rect x="0" y="0" width="620" height="330" rx="12" fill="#fdfdfb" stroke="#e1e0d9"/>
<text x="310" y="26" font-size="15" fill="#20201a" text-anchor="middle" font-weight="700">감마 월 근처의 핀 리스크와, 플립 이후 변동성 증폭</text>

<rect x="40" y="55" width="280" height="180" fill="#1a5fb4" opacity="0.08" stroke="#1a5fb4" stroke-width="1.5" stroke-dasharray="5,4"/>
<text x="180" y="48" font-size="12" fill="#1a5fb4" text-anchor="middle" font-weight="700">포지티브 감마: 변동성 억제(핀)</text>

<rect x="320" y="55" width="260" height="180" fill="#d0453b" opacity="0.08" stroke="#d0453b" stroke-width="1.5" stroke-dasharray="5,4"/>
<text x="450" y="48" font-size="12" fill="#d0453b" text-anchor="middle" font-weight="700">네거티브 감마: 변동성 증폭</text>

<line x1="40" y1="145" x2="580" y2="145" stroke="#b8860b" stroke-width="2" stroke-dasharray="6,4"/>
<text x="565" y="138" font-size="12" fill="#b8860b" text-anchor="end" font-weight="700">감마 월(핀 리스크 레벨)</text>

<path d="M 40,150 L 80,135 L 120,148 L 160,138 L 200,145 L 240,135 L 280,142 L 320,145 L 360,165 L 400,200 L 440,180 L 480,225 L 520,195 L 560,232 L 580,238" fill="none" stroke="#3a3a30" stroke-width="3"/>

<circle cx="320" cy="145" r="7" fill="#1f9d55"/>
<line x1="320" y1="145" x2="320" y2="255" stroke="#1f9d55" stroke-width="1.5" stroke-dasharray="5,4"/>
<text x="320" y="268" font-size="13" fill="#1f9d55" text-anchor="middle" font-weight="700">감마 플립</text>

<line x1="50" y1="288" x2="80" y2="288" stroke="#3a3a30" stroke-width="3"/>
<text x="88" y="293" font-size="13" fill="#20201a" text-anchor="start" font-weight="400">실제 주가 흐름</text>
<line x1="50" y1="310" x2="80" y2="310" stroke="#b8860b" stroke-width="2" stroke-dasharray="6,4"/>
<text x="88" y="315" font-size="13" fill="#20201a" text-anchor="start" font-weight="400">감마 월 (미결제약정 집중 행사가)</text>
</svg>
