<svg xmlns="http://www.w3.org/2000/svg" viewBox="0 0 640 400" font-family="'Segoe UI', 'Helvetica Neue', Arial, sans-serif">
<rect x="0" y="0" width="640" height="400" rx="12" fill="#fdfdfb" stroke="#e1e0d9"/>
<text x="320" y="27" font-size="14.5" fill="#20201a" text-anchor="middle" font-weight="700">일반 커버드콜 vs PMCC: 같은 단기 콜을 팔기 위해 필요한 자본 비교</text>

<line x1="320" y1="36" x2="320" y2="372" stroke="#e1e0d9" stroke-width="1"/>

<!-- LEFT: Traditional covered call -->
<text x="160" y="58" font-size="11.5" fill="#5a5950" text-anchor="middle" font-weight="700">일반 커버드콜</text>

<!-- big capital block -->
<rect x="70" y="150" width="180" height="150" rx="8" fill="#1a5fb4" opacity="0.10" stroke="#1a5fb4" stroke-width="1.5"/>
<text x="160" y="185" font-size="12.5" fill="#20201a" text-anchor="middle" font-weight="700">주식 100주</text>
<text x="160" y="204" font-size="10" fill="#767568" text-anchor="middle">현재가 100달러</text>
<text x="160" y="240" font-size="17" fill="#1a5fb4" text-anchor="middle" font-weight="700">$10,000</text>
<text x="160" y="258" font-size="9.5" fill="#767568" text-anchor="middle">필요 자본</text>
<text x="160" y="278" font-size="9.5" fill="#767568" text-anchor="middle">델타 ≈ 1.00</text>

<!-- small short call block on top -->
<rect x="95" y="95" width="130" height="42" rx="6" fill="#1f9d55" opacity="0.12" stroke="#1f9d55" stroke-width="1.5"/>
<text x="160" y="113" font-size="10" fill="#177a42" text-anchor="middle" font-weight="700">단기 콜 매도</text>
<text x="160" y="128" font-size="8.5" fill="#20201a" text-anchor="middle">행사가 $105 · 만기 35일</text>

<line x1="160" y1="137" x2="160" y2="150" stroke="#767568" stroke-width="1.5"/>

<!-- RIGHT: PMCC -->
<text x="480" y="58" font-size="11.5" fill="#5a5950" text-anchor="middle" font-weight="700">PMCC (롱콜 다이애고널)</text>

<!-- smaller capital block -->
<rect x="390" y="205" width="180" height="95" rx="8" fill="#1a5fb4" opacity="0.10" stroke="#1a5fb4" stroke-width="1.5"/>
<text x="480" y="232" font-size="12.5" fill="#20201a" text-anchor="middle" font-weight="700">LEAPS 콜옵션</text>
<text x="480" y="250" font-size="10" fill="#767568" text-anchor="middle">행사가 $70 · 만기 12개월+ · Δ≈0.80</text>
<text x="480" y="277" font-size="17" fill="#1a5fb4" text-anchor="middle" font-weight="700">$3,400</text>
<text x="480" y="292" font-size="9.5" fill="#767568" text-anchor="middle">필요 자본</text>

<!-- small short call block on top -->
<rect x="415" y="95" width="130" height="42" rx="6" fill="#1f9d55" opacity="0.12" stroke="#1f9d55" stroke-width="1.5"/>
<text x="480" y="113" font-size="10" fill="#177a42" text-anchor="middle" font-weight="700">단기 콜 매도</text>
<text x="480" y="128" font-size="8.5" fill="#20201a" text-anchor="middle">행사가 $105 · 만기 35일</text>

<line x1="480" y1="137" x2="480" y2="205" stroke="#767568" stroke-width="1.5"/>

<!-- savings callout -->
<path d="M 260,225 C 300,225 320,225 350,225" fill="none" stroke="#d0453b" stroke-width="1.5" stroke-dasharray="4,3"/>
<polygon points="350,225 341,220 341,230" fill="#d0453b"/>
<text x="305" y="215" font-size="10" fill="#d0453b" text-anchor="middle" font-weight="700">자본 약 66% 절감</text>

<text x="160" y="330" font-size="9" fill="#767568" text-anchor="middle">최대 손실: 주가가 0까지 하락 가능</text>
<text x="480" y="330" font-size="9" fill="#767568" text-anchor="middle">최대 손실: 순 투입 비용($3,150)으로 제한</text>

<text x="320" y="360" font-size="9.5" fill="#767568" text-anchor="middle">두 구조 모두 위에는 같은 단기 콜을 매도 — LEAPS가 주식 100주 자리를 대신한다</text>
<text x="320" y="384" font-size="8.5" fill="#9a9989" text-anchor="middle">예시를 위한 가상의 수치이며 실시간 시세가 아닙니다. LEAPS는 배당을 받지 못하며 자체 만기가 있습니다.</text>
</svg>
